<?xml version="1.0" encoding="UTF-8"?>
<svg id="Layer_1" data-name="Layer 1" xmlns="http://www.w3.org/2000/svg" viewBox="0 0 660.1 653.14">
  <defs>
    <style>
      .cls-1 {
        fill: #3f1868;
      }
    </style>
  </defs>
  <path class="cls-1" d="m167.67,36.19L228.67,1.68l-49.28,49.83c-35.26,35.66-61.91,78.38-78.25,125.07C184.73,97.95,284.92,37.52,392.95.85l2.52-.85,2.6.54c34.4,7.17,67.31,19.82,97.79,37.59l21.49,12.53-24.28,5.4c-121.83,27.08-233.51,85.04-326.02,168.77,134.23-58.31,276.51-90.74,423.75-96.52l5.26-.21,3.06,4.29c13.7,19.23,25.35,40.02,34.63,61.79l5.71,13.4-14.56.16c-145.12,1.58-285.67,31.01-418.47,87.55h452.53s.58,9.13.58,9.13c.38,6.01.57,12.44.57,19.12,0,14.73-.98,29.4-2.9,43.58l-1.15,8.43H206.44c129.28,55,266.08,84.37,407.33,87.38l15.72.34-7.31,13.93c-11.37,21.67-25.34,42.22-41.51,61.1l-3.13,3.65-4.79-.26c-140.86-7.66-277.05-39.8-405.67-95.67,84.36,76.27,185.38,131.56,295.13,161.13l26.54,7.15-25.13,11.15c-35.93,15.95-74.11,25.22-113.5,27.56l-2.23.13-2.05-.85c-91.02-37.45-173.17-90.51-244.68-157.97,9.05,25.84,21.28,50.5,36.55,73.65l34.17,51.81-48.4-38.85C45.01,517.93,0,424.11,0,323.53,0,204.8,64.25,94.69,167.67,36.19Z"/>
</svg>