<?xml version="1.0" encoding="UTF-8"?>
<svg id="Layer_1" data-name="Layer 1" xmlns="http://www.w3.org/2000/svg" viewBox="0 0 1951.03 228.26">
  <defs>
    <style>
      .cls-1 {
        fill: #ffa200;
      }

      .cls-2 {
        fill: #3f1868;
      }
    </style>
  </defs>
  <g>
    <g>
      <path class="cls-2" d="m313.86,41.85v113.61h67.93v25.77h-98.58V41.85h30.65Z"/>
      <path class="cls-2" d="m507.38,170.59c-10.54,9.17-25.12,13.76-43.73,13.76s-33.48-4.55-43.82-13.66c-10.35-9.11-15.52-23.16-15.52-42.16V41.85h30.65v86.67c0,3.78.32,7.48.98,11.13.65,3.64,2.02,6.87,4.1,9.66,2.08,2.8,4.98,5.08,8.69,6.83,3.71,1.76,8.69,2.64,14.93,2.64,10.93,0,18.48-2.44,22.64-7.32,4.16-4.88,6.25-12.52,6.25-22.94V41.85h30.65v86.67c0,18.87-5.27,32.89-15.81,42.07Z"/>
      <path class="cls-2" d="m778.2,41.85c6.64,0,12.69.59,18.15,1.76,5.47,1.17,10.15,3.09,14.05,5.76,3.9,2.67,6.93,6.22,9.08,10.64,2.15,4.43,3.22,9.89,3.22,16.4,0,7.03-1.59,12.88-4.78,17.57-3.19,4.69-7.91,8.52-14.15,11.52,8.59,2.47,15,6.8,19.23,12.98,4.23,6.18,6.34,13.63,6.34,22.35,0,7.03-1.37,13.11-4.1,18.25-2.73,5.14-6.41,9.34-11.03,12.59-4.62,3.25-9.89,5.66-15.81,7.22-5.92,1.56-12,2.34-18.25,2.34h-67.54V41.85h65.59Zm-3.9,56.42c5.47,0,9.96-1.3,13.47-3.9,3.51-2.6,5.27-6.83,5.27-12.69,0-3.25-.59-5.92-1.76-8-1.17-2.08-2.73-3.71-4.69-4.88-1.95-1.17-4.2-1.98-6.73-2.44-2.54-.45-5.17-.68-7.91-.68h-28.7v32.6h31.04Zm1.76,59.15c2.99,0,5.86-.29,8.59-.88,2.73-.59,5.14-1.56,7.22-2.93,2.08-1.37,3.74-3.22,4.98-5.56,1.24-2.34,1.85-5.33,1.85-8.98,0-7.16-2.02-12.27-6.05-15.32-4.04-3.06-9.37-4.59-16.01-4.59h-33.38v38.26h32.79Z"/>
      <path class="cls-2" d="m888.77,41.85v139.38h-30.65V41.85h30.65Z"/>
      <path class="cls-2" d="m676.21,150.11l-7.06-22.75-26.5-85.48h-52.37l-26.51,85.48-7.05,22.75-9.66,31.12h26.19l9.64-31.12h67.12l9.64,31.12h26.19l-9.64-31.12Zm-86.25-22.75l26.5-85.47,26.5,85.47h-53Z"/>
    </g>
    <path class="cls-1" d="m58.6,12.65L79.92.59l-17.22,17.42c-12.32,12.46-21.64,27.39-27.35,43.71C64.56,34.23,99.57,13.11,137.33.3l.88-.3.91.19c12.02,2.51,23.52,6.93,34.18,13.14l7.51,4.38-8.49,1.89c-42.58,9.46-81.61,29.72-113.94,58.98,46.91-20.38,96.64-31.71,148.09-33.73l1.84-.07,1.07,1.5c4.79,6.72,8.86,13.99,12.1,21.59l2,4.68-5.09.06c-50.72.55-99.84,10.84-146.25,30.6h158.15s.2,3.19.2,3.19c.13,2.1.2,4.35.2,6.68,0,5.15-.34,10.27-1.01,15.23l-.4,2.95H72.15c45.18,19.22,92.99,29.49,142.35,30.54l5.5.12-2.55,4.87c-3.97,7.57-8.85,14.76-14.51,21.35l-1.09,1.28-1.68-.09c-49.23-2.68-96.83-13.91-141.78-33.43,29.48,26.66,64.79,45.98,103.14,56.31l9.28,2.5-8.78,3.9c-12.56,5.57-25.9,8.82-39.67,9.63l-.78.05-.72-.3c-31.81-13.09-60.52-31.63-85.51-55.21,3.16,9.03,7.44,17.65,12.77,25.74l11.94,18.11-16.91-13.58C15.73,181.01,0,148.22,0,113.07,0,71.57,22.45,33.09,58.6,12.65Z"/>
  </g>
  <g>
    <path d="m980.01,69.37c0-19.73,13.48-30.09,28.94-30.09s25.73,11.84,26.06,24.17l-11.35.82c-.41-7.32-4.03-15.62-14.72-15.62s-17.59,7.89-17.59,20.72,6.82,20.8,17.59,20.8,14.31-7.98,14.72-15.29l11.35.82c-.33,12.25-10.44,23.76-26.06,23.76s-28.94-10.36-28.94-30.09Z"/>
    <path d="m1052.7,69.37c0-18.91,12.5-30.09,28.94-30.09s28.94,11.18,28.94,30.09-12.5,30.09-28.94,30.09-28.94-11.18-28.94-30.09Zm28.94,20.8c10.69,0,17.59-8.47,17.59-20.8s-6.91-20.8-17.59-20.8-17.59,8.47-17.59,20.8,6.91,20.8,17.59,20.8Z"/>
    <path d="m1140.92,57.94v40.2h-11.43v-57.55h12.25l25.32,40.2v-40.2h11.43v57.55h-12.25l-25.32-40.2Z"/>
    <path d="m1211.71,57.94v40.2h-11.43v-57.55h12.25l25.32,40.2v-40.2h11.43v57.55h-12.25l-25.32-40.2Z"/>
    <path d="m1271.07,40.59h38.48v9.29h-27.13v13.73h22.2v9.29h-22.2v15.95h27.13v9.29h-38.48v-57.55Z"/>
    <path d="m1323.12,69.37c0-19.73,13.48-30.09,28.94-30.09s25.73,11.84,26.06,24.17l-11.35.82c-.41-7.32-4.03-15.62-14.72-15.62s-17.59,7.89-17.59,20.72,6.82,20.8,17.59,20.8,14.31-7.98,14.72-15.29l11.35.82c-.33,12.25-10.44,23.76-26.06,23.76s-28.94-10.36-28.94-30.09Z"/>
    <path d="m1409.78,49.88h-20.55v-9.29h52.45v9.29h-20.55v48.26h-11.35v-48.26Z"/>
    <path d="m1458.13,40.59h11.35v57.55h-11.35v-57.55Z"/>
    <path d="m1502.69,57.94v40.2h-11.43v-57.55h12.25l25.32,40.2v-40.2h11.43v57.55h-12.25l-25.32-40.2Z"/>
    <path d="m1559.18,69.37c0-19.73,13.48-30.01,28.94-30.01s27.54,10.69,27.87,23.02l-11.43.82c-.41-7.4-5.76-14.55-16.44-14.55s-17.59,7.89-17.59,20.72,6.82,20.8,17.59,20.8c9.87,0,16.53-5.34,17.51-11.84h-19.57v-9.29h31.9v29.1h-11.02l1.32-11.26c-3.62,7.65-10.36,12.58-20.14,12.58-15.46,0-28.94-10.36-28.94-30.09Z"/>
    <path d="m1680.45,49.88h-20.55v-9.29h52.45v9.29h-20.55v48.26h-11.35v-48.26Z"/>
    <path d="m1763.16,72.9h-23.02v25.24h-11.35v-57.55h11.35v23.02h23.02v-23.02h11.35v57.55h-11.35v-25.24Z"/>
    <path d="m1796.3,40.59h38.48v9.29h-27.13v13.73h22.2v9.29h-22.2v15.95h27.13v9.29h-38.48v-57.55Z"/>
    <path d="m977.96,123.61h10.93l9.7,45.05,10.44-45.05h9.87l10.44,45.05,9.7-45.05h10.85l-12.5,57.55h-14.22l-9.21-39.46-9.21,39.46h-14.31l-12.5-57.55Z"/>
    <path d="m1063.47,152.39c0-18.91,12.5-30.09,28.94-30.09s28.94,11.18,28.94,30.09-12.5,30.09-28.94,30.09-28.94-11.18-28.94-30.09Zm28.94,20.8c10.69,0,17.59-8.47,17.59-20.8s-6.91-20.8-17.59-20.8-17.59,8.47-17.59,20.8,6.91,20.8,17.59,20.8Z"/>
    <path d="m1140.26,123.61h19.73c13.15,0,22.28,6.25,22.28,17.76,0,9.37-6.5,12.5-13.24,13.4,10.2.41,12.33,2.88,13.24,14.88l.9,11.51h-11.51l-.9-12.58c-.49-6.58-.9-9.45-10.77-9.45h-8.39v22.03h-11.35v-57.55Zm19.73,26.23c6.58,0,10.94-2.71,10.94-8.47s-4.36-8.47-10.94-8.47h-8.39v16.94h8.39Z"/>
    <path d="m1203.24,123.61h11.35v48.26h26.72v9.29h-38.07v-57.55Z"/>
    <path d="m1257.75,123.61h18.91c16.28,0,28.61,7.4,28.61,28.78s-12.33,28.78-28.61,28.78h-18.91v-57.55Zm18.91,48.26c11.84,0,17.27-5.1,17.27-19.49s-5.43-19.49-17.27-19.49h-7.56v38.97h7.56Z"/>
    <path d="m1365.63,123.61h16.53l19.24,57.55h-11.51l-5.67-16.94h-20.64l-5.67,16.94h-11.51l19.24-57.55Zm15.54,31.32l-7.23-21.54-7.24,21.54h14.47Z"/>
    <path d="m1418.25,123.61h38.48v9.29h-27.13v13.73h23.02v9.29h-23.02v25.24h-11.35v-57.55Z"/>
    <path d="m1474.4,123.61h38.48v9.29h-27.13v13.73h23.02v9.29h-23.02v25.24h-11.35v-57.55Z"/>
    <path d="m1526.86,152.39c0-18.91,12.5-30.09,28.94-30.09s28.94,11.18,28.94,30.09-12.5,30.09-28.94,30.09-28.94-11.18-28.94-30.09Zm28.94,20.8c10.69,0,17.59-8.47,17.59-20.8s-6.91-20.8-17.59-20.8-17.59,8.47-17.59,20.8,6.91,20.8,17.59,20.8Z"/>
    <path d="m1603.65,123.61h19.73c13.15,0,22.28,6.25,22.28,17.76,0,9.37-6.5,12.5-13.24,13.4,10.2.41,12.33,2.88,13.24,14.88l.9,11.51h-11.51l-.9-12.58c-.49-6.58-.9-9.45-10.77-9.45h-8.39v22.03h-11.35v-57.55Zm19.73,26.23c6.58,0,10.94-2.71,10.94-8.47s-4.36-8.47-10.94-8.47h-8.39v16.94h8.39Z"/>
    <path d="m1666.64,123.61h18.91c16.28,0,28.61,7.4,28.61,28.78s-12.33,28.78-28.61,28.78h-18.91v-57.55Zm18.91,48.26c11.84,0,17.27-5.1,17.27-19.49s-5.43-19.49-17.27-19.49h-7.56v38.97h7.56Z"/>
    <path d="m1745.32,123.61h16.53l19.24,57.55h-11.51l-5.67-16.94h-20.64l-5.67,16.94h-11.51l19.24-57.55Zm15.54,31.32l-7.23-21.54-7.24,21.54h14.47Z"/>
    <path d="m1797.94,123.61h16.44c12.33,0,22.28,4.11,22.28,16.44,0,5.34-2.71,9.54-7.65,11.43,6.82,1.73,10.93,6.33,10.93,12.74,0,13.98-12.41,16.94-22.28,16.94h-19.73v-57.55Zm16.44,23.76c7.4,0,10.94-2.14,10.94-7.32s-3.54-7.15-10.94-7.15h-5.51v14.47h5.51Zm3.29,24.5c6.58,0,10.94-1.89,10.94-7.65s-4.36-7.65-10.94-7.65h-8.8v15.29h8.8Z"/>
    <path d="m1858.04,123.61h11.35v48.26h26.72v9.29h-38.07v-57.55Z"/>
    <path d="m1920.78,163.74l-18.09-40.12h11.84l12.25,26.97,12.5-26.97h11.76l-26.56,57.55h-11.76l8.06-17.43Z"/>
  </g>
</svg>