<?xml version="1.0" encoding="UTF-8"?>
<svg id="Layer_1" data-name="Layer 1" xmlns="http://www.w3.org/2000/svg" viewBox="0 0 888.77 228.26">
  <defs>
    <style>
      .cls-1 {
        fill: #ffa200;
      }

      .cls-2 {
        fill: #3f1868;
      }
    </style>
  </defs>
  <g>
    <path class="cls-1" d="m313.86,41.85v113.61h67.93v25.77h-98.58V41.85h30.65Z"/>
    <path class="cls-1" d="m507.38,170.59c-10.54,9.17-25.12,13.76-43.73,13.76s-33.48-4.55-43.82-13.66c-10.35-9.11-15.52-23.16-15.52-42.16V41.85h30.65v86.67c0,3.78.32,7.48.98,11.13.65,3.64,2.02,6.87,4.1,9.66,2.08,2.8,4.98,5.08,8.69,6.83,3.71,1.76,8.69,2.64,14.93,2.64,10.93,0,18.48-2.44,22.64-7.32,4.16-4.88,6.25-12.52,6.25-22.94V41.85h30.65v86.67c0,18.87-5.27,32.89-15.81,42.07Z"/>
    <path class="cls-1" d="m778.2,41.85c6.64,0,12.69.59,18.15,1.76,5.47,1.17,10.15,3.09,14.05,5.76,3.9,2.67,6.93,6.22,9.08,10.64,2.15,4.43,3.22,9.89,3.22,16.4,0,7.03-1.59,12.88-4.78,17.57-3.19,4.69-7.91,8.52-14.15,11.52,8.59,2.47,15,6.8,19.23,12.98,4.23,6.18,6.34,13.63,6.34,22.35,0,7.03-1.37,13.11-4.1,18.25-2.73,5.14-6.41,9.34-11.03,12.59-4.62,3.25-9.89,5.66-15.81,7.22-5.92,1.56-12,2.34-18.25,2.34h-67.54V41.85h65.59Zm-3.9,56.42c5.47,0,9.96-1.3,13.47-3.9,3.51-2.6,5.27-6.83,5.27-12.69,0-3.25-.59-5.92-1.76-8-1.17-2.08-2.73-3.71-4.69-4.88-1.95-1.17-4.2-1.98-6.73-2.44-2.54-.45-5.17-.68-7.91-.68h-28.7v32.6h31.04Zm1.76,59.15c2.99,0,5.86-.29,8.59-.88,2.73-.59,5.14-1.56,7.22-2.93,2.08-1.37,3.74-3.22,4.98-5.56,1.24-2.34,1.85-5.33,1.85-8.98,0-7.16-2.02-12.27-6.05-15.32-4.04-3.06-9.37-4.59-16.01-4.59h-33.38v38.26h32.79Z"/>
    <path class="cls-1" d="m888.77,41.85v139.38h-30.65V41.85h30.65Z"/>
    <path class="cls-1" d="m676.21,150.11l-7.06-22.75-26.5-85.48h-52.37l-26.51,85.48-7.05,22.75-9.66,31.12h26.19l9.64-31.12h67.12l9.64,31.12h26.19l-9.64-31.12Zm-86.25-22.75l26.5-85.47,26.5,85.47h-53Z"/>
  </g>
  <path class="cls-2" d="m58.6,12.65L79.92.59l-17.22,17.42c-12.32,12.46-21.64,27.39-27.35,43.71C64.56,34.23,99.57,13.11,137.33.3l.88-.3.91.19c12.02,2.51,23.52,6.93,34.18,13.14l7.51,4.38-8.49,1.89c-42.58,9.46-81.61,29.72-113.94,58.98,46.91-20.38,96.64-31.71,148.09-33.73l1.84-.07,1.07,1.5c4.79,6.72,8.86,13.99,12.1,21.59l2,4.68-5.09.06c-50.72.55-99.84,10.84-146.25,30.6h158.15s.2,3.19.2,3.19c.13,2.1.2,4.35.2,6.68,0,5.15-.34,10.27-1.01,15.23l-.4,2.95H72.15c45.18,19.22,92.99,29.49,142.35,30.54l5.5.12-2.55,4.87c-3.97,7.57-8.85,14.76-14.51,21.35l-1.09,1.28-1.68-.09c-49.23-2.68-96.83-13.91-141.78-33.43,29.48,26.66,64.79,45.98,103.14,56.31l9.28,2.5-8.78,3.9c-12.56,5.57-25.9,8.82-39.67,9.63l-.78.05-.72-.3c-31.81-13.09-60.52-31.63-85.51-55.21,3.16,9.03,7.44,17.65,12.77,25.74l11.94,18.11-16.91-13.58C15.73,181.01,0,148.22,0,113.07,0,71.57,22.45,33.09,58.6,12.65Z"/>
</svg>